<?xml version="1.0" encoding="UTF-8" standalone="no"?>
<!-- Created with Inkscape (http://www.inkscape.org/) -->

<svg
   xmlns:dc="http://purl.org/dc/elements/1.1/"
   xmlns:cc="http://creativecommons.org/ns#"
   xmlns:rdf="http://www.w3.org/1999/02/22-rdf-syntax-ns#"
   xmlns:svg="http://www.w3.org/2000/svg"
   xmlns="http://www.w3.org/2000/svg"
   xmlns:sodipodi="http://sodipodi.sourceforge.net/DTD/sodipodi-0.dtd"
   xmlns:inkscape="http://www.inkscape.org/namespaces/inkscape"
   id="svg2"
   version="1.1"
   inkscape:version="0.91 r13725"
   xml:space="preserve"
   width="1535.4282"
   height="1550.5693"
   viewBox="0 0 1535.4282 1550.5693"
   sodipodi:docname="logo_HQC.svg"><metadata
     id="metadata8"><rdf:RDF><cc:Work
         rdf:about=""><dc:format>image/svg+xml</dc:format><dc:type
           rdf:resource="http://purl.org/dc/dcmitype/StillImage" /><dc:title></dc:title></cc:Work></rdf:RDF></metadata><defs
     id="defs6" /><sodipodi:namedview
     pagecolor="#ffffff"
     bordercolor="#666666"
     borderopacity="1"
     objecttolerance="10"
     gridtolerance="10"
     guidetolerance="10"
     inkscape:pageopacity="0"
     inkscape:pageshadow="2"
     inkscape:window-width="1280"
     inkscape:window-height="974"
     id="namedview4"
     showgrid="false"
     inkscape:zoom="0.30440432"
     inkscape:cx="577.98513"
     inkscape:cy="918.247"
     inkscape:window-x="0"
     inkscape:window-y="26"
     inkscape:window-maximized="1"
     inkscape:current-layer="g12" /><g
     id="g10"
     inkscape:groupmode="layer"
     inkscape:label="logo_HQC"
     transform="matrix(1.25,0,0,-1.25,0,1550.5693)"><g
       id="g12"><path
         d="m 513.598,1.245 c -2.477,0.636 -4.59,1.226 -4.696,1.308 -0.109,0.086 3.828,16.492 8.746,36.461 4.918,19.965 8.891,36.352 8.821,36.414 -0.086,0.078 -36.039,-56.539 -41.864,-65.93 -0.343,-0.55 -2.195,-0.5 -6.113,0.168 l -5.621,0.961 -0.437,3.844 c -0.239,2.117 -1.641,18.695 -3.11,36.844 -1.469,18.152 -2.914,33.992 -3.211,35.199 -0.418,1.695 -2.414,-5.812 -8.726,-32.797 -4.5,-19.25 -8.426,-35.387 -8.719,-35.863 -0.395,-0.637 -1.977,-0.516 -6.051,0.465 -3.035,0.734 -5.601,1.394 -5.703,1.472 -0.191,0.149 16.797,71.114 19.285,80.555 0.805,3.043 1.629,5.703 1.836,5.906 0.301,0.301 16.813,-3.398 17.5,-3.918 0.418,-0.316 6.188,-66.05 6.188,-70.464 0,-2.606 0.211,-5.793 0.468,-7.083 l 0.469,-2.343 2.344,3.707 c 1.289,2.039 10.781,17.215 21.094,33.719 10.875,17.41 19.222,30.031 19.875,30.05 1.035,0.028 15.113,-3 15.578,-3.355 0.109,-0.082 -1.141,-5.688 -2.785,-12.449 -1.641,-6.766 -4.5,-18.543 -6.352,-26.176 -1.855,-7.629 -4.918,-20.285 -6.805,-28.125 -4.894,-20.313 -4.761,-19.883 -6.226,-19.797 -0.707,0.039 -3.309,0.594 -5.785,1.227 z m 218.625,11.726 c -6.614,1.566 -13.09,5.645 -17.563,11.066 -7.785,9.438 -12.351,19.961 -13.93,32.09 -2.25,17.332 3.45,30.778 16.868,39.778 7.836,5.254 14.718,7.535 22.734,7.535 12.5,0 21.602,-4.254 28.629,-13.383 l 3.844,-4.992 -5.106,-2.383 c -2.804,-1.316 -5.437,-2.402 -5.851,-2.422 -0.414,-0.015 -1.879,1.633 -3.258,3.668 -1.379,2.035 -4.207,4.789 -6.281,6.121 -3.293,2.11 -4.571,2.465 -9.973,2.746 -22.18,1.164 -34.637,-17.496 -28.191,-42.23 3.121,-11.988 8.507,-20.391 15.66,-24.426 3.746,-2.113 5.035,-2.414 11.75,-2.742 6.547,-0.32 8.086,-0.152 11.668,1.273 8.699,3.461 14.089,9.805 15.324,18.02 1.234,8.238 0.48,7.5 7.695,7.5 l 6.403,0 -0.5,-3.563 c -0.801,-5.699 -4.071,-14.82 -6.536,-18.222 -5.468,-7.551 -12.425,-12.551 -20.398,-14.66 -5.734,-1.52 -18.086,-1.934 -22.988,-0.774 z m -126.282,6.43 c -7.5,3.008 -11.316,6.789 -14.812,14.664 -1.254,2.832 -1.656,5.148 -1.633,9.453 0.024,5.121 0.316,6.25 2.879,11.121 3.262,6.211 7.121,9.609 13.734,12.094 8.977,3.371 21.282,0.258 27.45,-6.949 7.804,-9.118 7.964,-23.2 0.382,-32.793 -6.082,-7.696 -19.003,-11.196 -28,-7.59 z m 16.258,3.113 c 5.781,2.211 9.086,5.227 11.821,10.785 2.16,4.387 2.343,5.313 2.089,10.66 -0.246,5.215 -0.586,6.371 -3.129,10.536 -2.382,3.906 -3.675,5.136 -7.835,7.464 -11.618,6.496 -24.614,2.504 -30.239,-9.285 -8.738,-18.308 8.496,-37.351 27.293,-30.16 z m 229.762,74.699 -19.828,39.657 4.875,2.785 c 2.68,1.531 5.09,2.785 5.359,2.785 0.356,0 25.086,-48.676 40.434,-79.578 0.179,-0.364 -4.836,-2.817 -10.106,-4.942 -0.574,-0.23 -8.129,14.09 -20.734,39.293 z M 321.598,79.385 c -4.45,0.887 -12.86,5.012 -18.258,8.957 -5.235,3.82 -10.969,10.824 -11.738,14.332 -0.274,1.238 -0.805,2.442 -1.188,2.68 -1.109,0.683 -0.797,10.586 0.488,15.543 0.649,2.504 2.203,6.601 3.453,9.109 3.051,6.106 30.098,50.621 30.782,50.656 1.211,0.063 9.941,-6.16 9.722,-6.933 -0.129,-0.457 -5.949,-10.016 -12.933,-21.234 -18.746,-30.125 -21.539,-36.614 -19.469,-45.231 0.75,-3.129 1.656,-4.488 5.125,-7.656 9.359,-8.555 17.41,-11.293 25.801,-8.778 4.867,1.457 9.668,7.758 26.094,34.254 8.453,13.641 15.636,24.813 15.961,24.828 0.328,0.016 2.593,-1.246 5.042,-2.8 l 4.454,-2.832 -12.918,-21.774 C 358.023,98.924 355.301,94.862 348.992,88.174 c -5.742,-6.09 -11.332,-8.816 -18.719,-9.14 -3.121,-0.137 -7.027,0.019 -8.675,0.351 z m 607.125,63.485 c -14.645,17.96 -27.203,33.421 -27.907,34.359 -1.277,1.703 -1.25,1.73 14.18,14.394 25.926,21.286 27.246,22.067 37.168,22.067 4.856,0 6.527,-0.313 8.719,-1.641 8.48,-5.137 13.066,-11.285 13.976,-18.738 0.672,-5.484 -1.488,-12.309 -5.664,-17.906 -1.636,-2.192 -2.972,-4.137 -2.972,-4.321 0,-0.183 1.312,-0.125 2.918,0.133 4.347,0.695 18.664,-2.523 33.679,-7.57 l 12.973,-4.36 -3.973,-3.425 c -6.855,-5.914 -5.539,-5.809 -19.004,-1.547 -17.332,5.48 -24.004,7.055 -30.343,7.16 -6.395,0.105 -6.657,-0.027 -16.653,-8.465 -3.492,-2.941 -5.543,-5.183 -5.183,-5.656 0.328,-0.434 5.601,-7.031 11.722,-14.66 6.118,-7.633 11.403,-14.242 11.735,-14.692 0.383,-0.511 -1.008,-2.132 -3.692,-4.308 -2.367,-1.922 -4.472,-3.492 -4.679,-3.489 -0.207,0 -12.356,14.704 -27,32.665 z m 13.875,21 c 16.39,13.062 20.625,18.105 20.625,24.542 0,4.434 -1.442,7.704 -4.86,11.016 -2.492,2.414 -2.672,2.465 -7.761,2.098 -4.286,-0.305 -5.989,-0.852 -9.606,-3.071 -5.055,-3.097 -25.184,-19.523 -25.117,-20.492 0.051,-0.746 16.781,-21.258 17.344,-21.261 0.207,0 4.425,3.222 9.375,7.168 z m -749.813,15.539 -4.316,3.906 27.41,28.5 27.406,28.5 -10.574,10.125 -10.578,10.125 3.762,3.691 3.761,3.688 12.219,-11.746 c 6.723,-6.457 18.051,-17.399 25.172,-24.313 l 12.953,-12.57 -3.293,-3.727 -3.289,-3.73 -10.492,9.918 c -5.77,5.453 -10.633,9.914 -10.805,9.914 -0.176,0 -12.445,-12.656 -27.269,-28.125 -14.821,-15.469 -27.133,-28.11 -27.352,-28.094 -0.223,0.016 -2.344,1.789 -4.715,3.938 z m 850.688,37.937 c -7.317,1.211 -22.387,10.52 -28.914,17.863 -8.895,10.008 -13.086,19.832 -13.086,30.692 0,9.765 6.23,22.543 14.504,29.746 8.613,7.5 19.652,9.812 32.503,6.805 l 5.387,-1.258 -2.66,-5.313 c -1.465,-2.922 -2.777,-5.441 -2.922,-5.601 -0.14,-0.157 -2.449,0.265 -5.129,0.937 -6.511,1.637 -10.019,1.543 -14.402,-0.387 -10.637,-4.687 -17.484,-16.148 -16.301,-27.265 1.395,-13.043 12.496,-25.805 28.77,-33.07 4.257,-1.903 5.73,-2.172 11.625,-2.125 8.07,0.062 12.515,1.726 17.492,6.554 3.933,3.817 7.902,10.785 9.101,15.996 1.082,4.68 -0.035,9.188 -4.058,16.383 l -2.613,4.676 5.273,3.637 c 4.379,3.019 5.402,3.449 6.031,2.543 2.379,-3.43 5.414,-11.192 6.465,-16.524 1.504,-7.644 0.582,-14.414 -2.961,-21.695 -3.129,-6.422 -12.098,-15.285 -19.734,-19.5 -5.34,-2.949 -5.906,-3.094 -13.289,-3.363 -4.239,-0.161 -9.227,-0.036 -11.082,0.269 z m -928.289,51.723 -3.164,5.144 16.355,37.426 c 8.996,20.586 16.285,37.523 16.203,37.641 -0.086,0.113 -12.883,-7.903 -28.441,-17.813 -15.563,-9.914 -28.516,-18.012 -28.789,-18 -0.489,0.028 -6.93,9.184 -6.645,9.442 0.887,0.808 74.305,47.527 74.66,47.507 0.266,-0.011 1.012,-0.769 1.653,-1.687 0.64,-0.914 2.246,-3.188 3.566,-5.051 l 2.395,-3.391 -16.379,-37.484 c -9.012,-20.617 -16.313,-37.582 -16.231,-37.699 0.086,-0.117 12.887,8.066 28.449,18.187 15.563,10.121 28.516,18.399 28.786,18.395 0.273,0 1.742,-2.293 3.269,-5.094 l 2.77,-5.09 -36.832,-23.593 c -20.254,-12.977 -37.196,-23.68 -37.645,-23.789 -0.449,-0.106 -2.238,2.121 -3.98,4.949 z m 315.238,4.41 c -1.348,0.348 -1.399,0.973 -0.938,11.726 0.266,6.25 1.133,14.606 1.926,18.571 2.758,13.816 9.836,23.988 18.172,26.117 2.207,0.566 4.566,1.371 5.238,1.789 0.832,0.516 4.571,0.48 11.664,-0.117 16.137,-1.352 14.766,-1.664 16.567,3.82 5.269,16.043 3.328,34 -6.5,60.152 -2.942,7.821 -6.692,16.446 -8.336,19.168 -1.645,2.723 -3.004,5.27 -3.016,5.657 -0.015,0.386 -0.488,1.316 -1.051,2.062 -0.949,1.25 -1.101,1.129 -1.937,-1.5 -0.496,-1.57 -1.438,-3.281 -2.09,-3.797 -0.824,-0.652 -0.891,-0.937 -0.219,-0.937 0.664,0 0.446,-0.879 -0.703,-2.813 -32.914,-55.371 -43.758,-74.929 -64.84,-116.941 l -10.605,-21.133 -49.207,-0.504 -49.211,-0.508 -0.539,3.602 c -1.047,6.973 0.199,21.066 2.594,29.391 4.121,14.32 10.679,21.109 23.777,24.617 8.871,2.375 24.418,0.082 37.539,-5.531 l 5.359,-2.293 2.231,3.121 c 3.027,4.234 6.391,11.113 8.301,16.992 2.734,8.41 7.484,28.801 8.679,37.262 2.426,17.187 4.266,31.8 5.364,42.613 0.632,6.187 1.468,13.535 1.863,16.324 0.394,2.793 1.398,13.594 2.23,24 0.832,10.41 2.012,23.652 2.618,29.426 0.605,5.777 1.625,17.25 2.261,25.5 0.637,8.25 1.321,16.183 1.516,17.625 0.223,1.633 -3.145,-4.473 -8.902,-16.125 -8.321,-16.844 -9.313,-18.52 -9.762,-16.5 -0.274,1.238 -1.656,13.676 -3.07,27.64 -1.418,13.965 -2.68,25.493 -2.813,25.618 -0.129,0.125 -7.996,-10.34 -17.484,-23.254 l -17.25,-23.481 -0.375,36.266 -0.375,36.262 -7.875,-12.692 c -5.645,-9.097 -7.926,-12.222 -8.059,-11.027 -0.102,0.918 -1.023,15.98 -2.055,33.473 -1.027,17.492 -1.992,31.929 -2.148,32.082 -0.152,0.156 -4.797,-4.504 -10.32,-10.348 -7.563,-8.004 -10.102,-10.281 -10.278,-9.211 -0.734,4.422 -10.906,50.328 -11.328,51.113 -0.324,0.61 -3.652,-2.5 -9.437,-8.816 -5.852,-6.383 -9.118,-9.43 -9.453,-8.813 -0.286,0.516 -1.583,8.196 -2.879,17.063 -1.297,8.871 -2.551,17.222 -2.786,18.562 -0.367,2.102 -0.21,2.438 1.125,2.438 1.165,0 1.653,-0.606 1.961,-2.438 0.227,-1.34 1.407,-8.468 2.625,-15.84 1.215,-7.371 2.336,-13.527 2.489,-13.675 0.152,-0.153 4.261,4.117 9.136,9.484 4.875,5.371 9.024,9.602 9.219,9.41 0.403,-0.402 0.945,-2.914 6.586,-30.441 2.242,-10.93 4.281,-20.719 4.531,-21.75 l 0.453,-1.875 2.372,2.738 c 1.304,1.508 5.968,6.789 10.363,11.738 l 7.996,9 0.449,-4.988 c 0.25,-2.742 1.113,-15.113 1.926,-27.488 0.809,-12.375 1.684,-24.988 1.941,-28.035 l 0.469,-5.535 16.336,27.414 0.195,-37.168 0.196,-37.164 13.875,18.773 c 7.632,10.324 15.113,20.582 16.629,22.797 3.347,4.89 2.695,7.18 6.222,-21.832 1.453,-11.961 2.848,-22.93 3.098,-24.375 0.43,-2.445 1.394,-0.75 14.258,24.937 8.925,17.836 14.191,27.563 14.918,27.563 0.621,0 1.125,-0.172 1.125,-0.383 0,-0.215 -2.161,-4.699 -4.801,-9.969 l -4.801,-9.578 -1.183,-11.598 c -0.653,-6.378 -1.876,-21.214 -2.719,-32.972 -0.844,-11.754 -2.031,-25.594 -2.633,-30.75 -0.606,-5.156 -1.793,-17.641 -2.641,-27.75 -0.847,-10.106 -2.019,-21.918 -2.601,-26.25 -0.586,-4.328 -1.43,-11.418 -1.875,-15.75 -1.957,-19.039 -8.586,-50.418 -13.489,-63.852 -2.57,-7.043 -6.089,-13.633 -8.855,-16.586 -1.66,-1.769 -2.523,-2.062 -6.105,-2.062 -8.059,0 -20.157,-2.742 -25.547,-5.785 -10.641,-6.008 -15.797,-16.993 -14.575,-31.032 0.493,-5.625 0.442,-5.933 -1,-5.933 -1.355,0 -1.578,0.652 -2.046,5.961 -1.895,21.41 9.691,35.469 31.871,38.664 1.855,0.265 4.043,0.68 4.863,0.914 1.375,0.394 1.348,0.48 -0.375,1.152 -5.481,2.145 -15.383,4.36 -21.348,4.774 -5.73,0.402 -7.621,0.218 -12.355,-1.2 -7.055,-2.105 -10.008,-4.117 -14.465,-9.847 -5.781,-7.438 -8.777,-18.985 -8.805,-33.977 l -0.015,-7.433 35.437,0.496 c 19.492,0.273 40.695,0.496 47.125,0.496 l 11.684,0 5.191,11.047 c 5.512,11.734 27.504,53.277 33.852,63.953 2.086,3.508 6.535,11.375 9.886,17.484 3.352,6.106 9.668,16.895 14.032,23.969 10.644,17.25 12.988,22.129 17.406,36.195 5.363,17.078 14.25,49.168 14.379,51.914 0.023,0.512 3.008,0.106 3.008,-0.41 0,-1.508 -7.047,-28.152 -10.75,-40.648 l -4.114,-13.871 4.379,-8.254 c 15.528,-29.262 22.117,-55.149 19.16,-75.27 -1.777,-12.117 -4.128,-17.359 -7.781,-17.359 -5.258,0 -11.379,-4.203 -14.418,-9.906 -3.992,-7.497 -5.242,-13.614 -5.746,-28.157 l -0.449,-12.937 37.422,0.48 c 20.582,0.262 37.504,0.543 37.605,0.621 0.102,0.079 -1.16,41.696 -2.801,92.481 -2.988,92.453 -3.019,97.101 -0.675,101.625 5.16,9.965 18.511,19.308 38.168,26.715 15.027,5.66 38.367,9.461 62.625,10.191 37.851,1.145 74.929,-4.758 95.867,-15.258 3.976,-1.996 7.41,-3.453 7.621,-3.242 0.215,0.215 0.387,4.383 0.387,9.262 0,8.375 0.086,8.875 1.5,8.875 1.191,0 1.5,-0.5 1.496,-2.438 0,-1.34 -0.348,-17.457 -0.774,-35.812 l -0.777,-33.375 -16.141,-42.641 c -8.879,-23.457 -15.972,-42.816 -15.761,-43.027 0.211,-0.207 -2.125,-5.387 -5.192,-11.504 l -5.57,-11.125 1.086,-8.766 c 0.598,-4.82 1.207,-8.886 1.351,-9.031 0.145,-0.144 2.075,1.926 4.289,4.606 2.215,2.675 4.079,4.863 4.145,4.863 0.066,0 1.605,-1.313 3.422,-2.918 1.816,-1.606 4.246,-3.715 5.406,-4.688 1.84,-1.55 2.551,-3.562 5.738,-16.257 2,-7.969 3.789,-14.641 3.973,-14.829 0.188,-0.187 7.406,-0.246 16.043,-0.136 l 15.703,0.203 -9.953,22.465 c -5.473,12.359 -9.672,22.652 -9.332,22.875 0.344,0.226 0.828,3.785 1.078,7.91 0.809,13.324 8.785,41.558 17.797,63 1.73,4.125 4.828,11.887 6.879,17.25 2.051,5.363 4.172,10.258 4.711,10.875 1.39,1.59 30.383,67.625 30.383,69.203 0,0.715 0.285,1.297 0.629,1.297 0.347,0 2.086,3.406 3.863,7.566 1.777,4.164 3.769,7.762 4.433,8.004 0.661,0.238 1.985,1.203 2.946,2.141 0.961,0.937 4.082,2.621 6.937,3.742 2.856,1.117 5.192,2.32 5.192,2.668 0,0.348 1.847,0.629 4.105,0.629 3.867,0 20.363,4.277 27.727,7.187 8.133,3.211 11.808,9.375 13.562,22.715 1.328,10.117 2.723,56.531 1.715,57.172 -0.512,0.328 -4.996,35.379 -5.098,39.863 -0.007,0.309 3.039,0.563 6.766,0.563 l 6.773,0 -0.429,3.562 c -1.317,10.844 -3.266,30.543 -3.043,30.766 0.14,0.141 3.414,-1.82 7.277,-4.359 l 7.02,-4.614 0.75,18.703 0.75,18.7 4.5,-3.641 c 7.449,-6.027 7.289,-6.07 5.211,1.445 l -1.817,6.563 2.324,11.703 c 2.235,11.23 2.418,11.754 4.618,13.055 2.285,1.347 2.296,1.347 4.039,-0.68 l 1.746,-2.031 0.75,1.726 c 0.414,0.949 2.379,6.285 4.367,11.852 3.023,8.461 3.887,10.164 5.254,10.367 0.898,0.129 1.633,0.129 1.633,-0.008 0,-0.133 -0.832,-3.269 -1.848,-6.965 l -1.848,-6.718 3.535,-4.645 c 1.946,-2.559 3.657,-4.531 3.801,-4.391 0.145,0.145 1.211,4.719 2.371,10.165 1.536,7.203 2.547,10.332 3.715,11.484 1.563,1.547 1.625,1.551 2.418,0.152 2.102,-3.695 9.785,-10.941 15.367,-14.496 4.848,-3.082 20.297,-10.695 21.711,-10.695 0.153,0 0.278,7.594 0.278,16.875 l 0,16.875 3.941,0 -1.039,-67.875 3.617,5.941 c 1.992,3.266 3.973,6.055 4.403,6.199 0.429,0.145 1.914,-1.25 3.296,-3.097 1.387,-1.848 2.743,-3.223 3.016,-3.051 0.273,0.168 1.434,2.688 2.574,5.594 1.141,2.91 2.356,5.289 2.699,5.289 0.348,0 2.383,-0.406 4.532,-0.899 3.578,-0.828 4.004,-0.781 5.121,0.567 0.668,0.808 1.992,1.808 2.937,2.222 1.598,0.696 1.18,1.106 -5.765,5.594 -5.754,3.723 -7.309,5.067 -6.696,5.805 1.149,1.387 1.836,1.223 5.489,-1.289 3.093,-2.129 3.672,-2.25 10.636,-2.238 7.286,0.011 7.395,0.039 10.364,2.57 l 3,2.558 -3.368,3.618 c -1.855,1.988 -5.164,5.504 -7.355,7.804 -3.648,3.836 -3.875,4.278 -2.711,5.243 1.141,0.949 1.977,0.296 8.215,-6.403 7.805,-8.383 7.633,-8.355 11.18,-1.84 1.707,3.133 2.027,4.504 1.742,7.457 -0.59,6.153 -3.699,10.914 -17.848,27.356 l -13.558,15.75 0.437,4.875 c 0.242,2.683 0.613,6.562 0.828,8.625 l 0.383,3.75 -16.254,21 c -8.941,11.551 -18.059,23.379 -20.262,26.285 l -4.007,5.285 -1.153,12.715 c -2.949,32.5 -10.601,56.273 -26.351,81.855 -4.028,6.54 -11.989,17.485 -12.715,17.485 -0.09,0 1.535,-3.797 3.613,-8.438 11.766,-26.32 17.895,-59.558 16.664,-90.375 -0.492,-12.336 -0.586,-12.937 -2.039,-12.937 -1.488,0 -1.512,0.269 -0.992,11.187 0.453,9.524 0.367,11.223 -0.57,11.438 -0.606,0.137 -6.09,6.664 -12.188,14.5 -6.098,7.84 -13.684,17.289 -16.859,21 -15.95,18.652 -40.625,36.191 -59.957,42.617 -8.024,2.668 -23.055,6.203 -23.688,5.57 -0.191,-0.191 1.77,-1.105 4.36,-2.035 13.05,-4.687 38.796,-22.496 47.113,-32.594 1.465,-1.777 4.527,-5.386 6.804,-8.019 2.278,-2.633 5.758,-6.914 7.727,-9.516 1.973,-2.601 4.184,-5.301 4.918,-6 0.734,-0.699 5.609,-7.851 10.832,-15.898 9.328,-14.367 9.488,-14.684 9.051,-18 -1.039,-7.903 -1.141,-8.121 -5.758,-12.121 -4.453,-3.86 -4.488,-3.871 -6.562,-2.649 -4.336,2.563 -14.243,5.641 -22.922,7.125 -9.203,1.575 -22.125,2.832 -22.125,2.153 0,-0.207 5.386,-6.223 11.968,-13.364 l 11.973,-12.984 -13.121,-5.223 c -7.273,-2.898 -12.977,-5.578 -12.797,-6.019 0.176,-0.434 1.024,-2.563 1.887,-4.731 l 1.57,-3.937 -25.418,0 2.238,-4.981 c 1.227,-2.742 2.059,-5.16 1.84,-5.375 -0.215,-0.218 -4.613,-1.097 -9.773,-1.957 l -9.383,-1.562 2.695,-4 c 1.481,-2.199 2.516,-4.176 2.297,-4.395 -0.215,-0.218 -5.558,-1.879 -11.875,-3.691 -6.312,-1.813 -11.719,-3.375 -12.015,-3.477 -0.293,-0.101 1.293,-2.347 3.531,-4.988 l 4.066,-4.801 -11.027,-6.718 c -6.067,-3.696 -11.09,-6.77 -11.16,-6.829 -0.074,-0.062 1.539,-2.132 3.582,-4.605 l 3.715,-4.496 -5.457,-1.637 c -3.004,-0.898 -7.559,-2.25 -10.121,-3 l -4.665,-1.363 2.165,-3.457 2.16,-3.461 -5.133,-6.289 C 760.484,729.041 752.16,721.651 737.762,712.748 723.43,703.889 712.238,698.662 692.473,691.6 l -16.875,-6.031 -15,-1.668 c -13.227,-1.469 -17.352,-1.614 -34.875,-1.215 -31.684,0.723 -53.364,4.879 -75,14.371 -9.121,4.004 -14.278,8.18 -12.407,10.047 0.965,0.969 1.34,0.859 3.082,-0.883 6.727,-6.726 28.934,-14.332 53.2,-18.223 18.214,-2.918 45.57,-3.378 65.625,-1.105 15.867,1.797 20.898,3.105 38.25,9.953 12.086,4.77 33.425,15.285 40.976,20.191 9.953,6.469 21.758,17.086 29.555,26.59 l 4.363,5.313 -1.933,3.312 c -1.063,1.825 -2.383,3.84 -2.938,4.485 -0.887,1.039 0.141,1.5 9.078,4.058 l 10.078,2.887 -1.441,2.027 c -0.793,1.114 -2.395,3.047 -3.563,4.293 l -2.117,2.27 11.059,6.613 c 9.418,5.637 10.93,6.789 10.176,7.774 -0.485,0.636 -2.461,3.023 -4.391,5.304 l -3.512,4.145 13.024,3.664 c 8.363,2.355 12.855,3.957 12.551,4.48 -0.258,0.45 -1.735,2.348 -3.286,4.227 l -2.816,3.41 10.258,2.137 c 5.64,1.172 10.351,2.211 10.472,2.308 0.122,0.094 -0.636,2.11 -1.687,4.481 -1.047,2.375 -1.906,4.777 -1.906,5.344 0,0.836 2.367,1.031 12.336,1.031 l 12.332,0 -1.77,4.004 -1.773,4.004 25.297,10.257 -5.954,6.43 c -3.273,3.539 -8.613,9.289 -11.863,12.781 -5.105,5.485 -5.797,6.547 -5.07,7.758 0.773,1.297 1.535,1.367 9.84,0.895 14.183,-0.801 36.097,-5.598 39.863,-8.719 0.699,-0.582 1.523,-0.395 3.047,0.691 3.574,2.547 4.558,4.129 5.39,8.668 l 0.805,4.395 -10.203,15.105 c -14.836,21.961 -22.07,31.309 -31.508,40.715 -13.398,13.344 -28.347,23.133 -46.683,30.559 -8.684,3.519 -9.442,3.98 -9.207,5.617 0.246,1.734 0.394,1.77 5.25,1.297 29.812,-2.91 57.57,-16.703 80.457,-39.985 11.058,-11.25 18.996,-20.5 28.664,-33.394 4.554,-6.074 8.398,-10.926 8.547,-10.781 0.554,0.554 -2.223,25.277 -3.969,35.297 -3.891,22.347 -13.156,45.23 -25.27,62.406 -3.019,4.281 -8.273,9.402 -10.488,10.222 -0.703,0.258 -0.621,0.688 0.32,1.676 1.199,1.262 1.555,1.082 7.125,-3.621 9.7,-8.183 19.969,-20.539 30.7,-36.93 14.656,-22.39 23.214,-48.917 26.082,-80.843 l 1.066,-11.875 12.625,-16.625 c 6.945,-9.145 16.098,-21.219 20.344,-26.828 l 7.718,-10.204 -0.796,-8.445 -0.797,-8.441 2.578,-3.106 c 1.418,-1.707 7.5,-8.84 13.515,-15.855 6.016,-7.012 11.813,-14.5 12.883,-16.645 2.574,-5.136 3.207,-11.84 1.532,-16.222 -1.426,-3.735 -5.157,-7.692 -6.477,-6.871 -0.668,0.41 -0.688,0.171 -0.078,-0.965 0.695,-1.297 0.347,-1.934 -2.465,-4.528 -4.516,-4.16 -7.211,-5.39 -11.844,-5.406 l -3.976,-0.012 2.437,-1.558 c 1.34,-0.86 2.438,-1.653 2.438,-1.766 0,-0.109 -1.434,-1.121 -3.188,-2.246 -1.754,-1.125 -3.863,-2.836 -4.687,-3.805 -1.391,-1.625 -1.762,-1.699 -5.094,-0.984 -1.977,0.426 -4.027,0.605 -4.551,0.406 -0.527,-0.203 -2.078,-3.269 -3.449,-6.82 -1.371,-3.547 -2.75,-6.449 -3.059,-6.449 -0.308,0 -1.847,1.687 -3.422,3.75 -1.57,2.062 -3.043,3.742 -3.265,3.734 -0.227,-0.012 -3.031,-3.976 -6.238,-8.812 l -5.829,-8.797 0.204,21.492 c 0.113,11.82 -0.024,21.121 -0.305,20.668 -0.34,-0.551 -2.699,0.137 -7.125,2.074 -14.668,6.422 -21.824,11.297 -28.777,19.609 l -1.907,2.282 -2.515,-12.438 c -1.383,-6.84 -2.719,-12.672 -2.965,-12.953 -0.25,-0.285 -2.856,2.656 -5.789,6.535 l -5.34,7.051 -1.953,-5.293 -1.957,-5.293 1.832,-2.695 c 1.371,-2.016 1.625,-2.942 1.015,-3.68 -0.453,-0.543 -1.039,-0.984 -1.308,-0.984 -0.27,0 -2.149,2.191 -4.172,4.875 -3.067,4.058 -4.906,5.801 -4.906,4.648 0,-0.125 -0.836,-4.914 -1.86,-10.644 L 901,715.155 l 2.668,-10.051 c 1.469,-5.527 2.539,-10.18 2.383,-10.336 -0.16,-0.156 -3.305,1.914 -6.996,4.605 l -6.707,4.891 -0.473,-9.973 c -0.262,-5.484 -0.516,-13.601 -0.563,-18.035 -0.05,-4.433 -0.246,-8.062 -0.437,-8.062 -0.191,0 -3.262,1.879 -6.824,4.176 -3.559,2.296 -6.594,4.054 -6.742,3.906 -0.375,-0.375 2.609,-29.887 3.101,-30.684 0.223,-0.355 -2.695,-0.648 -6.476,-0.648 l -6.879,0 0.429,-3.188 c 0.239,-1.754 0.801,-7.238 1.25,-12.187 1.028,-11.371 1.25,-12.375 2.727,-12.375 1.09,0 1.164,-1.461 0.742,-14.438 -0.258,-7.941 -0.68,-22.707 -0.937,-32.812 -0.344,-13.25 -0.844,-20.094 -1.805,-24.535 -1.711,-7.93 -5.766,-15.364 -9.586,-17.559 l -2.777,-1.598 0.191,-9.84 c 0.102,-5.414 0.516,-30.769 0.914,-56.343 0.746,-47.606 2.289,-75.617 4.895,-88.875 0.609,-3.094 1.605,-9 2.218,-13.125 1.09,-7.395 5.911,-22.524 8.364,-26.27 0.668,-1.019 1.66,-1.855 2.203,-1.855 0.586,0 0.98,-0.848 0.969,-2.063 -0.02,-1.953 16.265,-41.433 18.55,-44.972 0.59,-0.914 1.071,-1.848 1.071,-2.079 0,-0.226 -8.321,-0.324 -18.489,-0.214 l -18.488,0.203 -4.75,15.375 c -4.219,13.648 -5.027,15.609 -7.199,17.468 -3.262,2.79 -5.82,4.551 -6.098,4.196 -0.121,-0.16 -2.367,-3.133 -4.984,-6.613 -4.035,-5.352 -4.852,-6.098 -5.332,-4.872 -0.317,0.793 -1.453,6.676 -2.528,13.071 l -1.957,11.625 9.516,21 -0.918,4.875 c -0.508,2.679 -3.98,20.738 -7.715,40.125 l -6.793,35.25 -10.222,27.75 c -5.621,15.261 -10.454,28 -10.731,28.308 -0.281,0.309 -7.027,-14.25 -14.996,-32.359 -7.965,-18.106 -14.93,-33.379 -15.473,-33.938 -1.707,-1.75 -8.203,-17.597 -14.488,-35.324 -9.422,-26.586 -13.328,-42.015 -14.144,-55.91 -0.309,-5.262 -0.114,-6.82 1.285,-10.125 0.91,-2.144 5.5,-12.691 10.203,-23.434 4.703,-10.742 8.551,-19.769 8.551,-20.062 0,-0.293 -8.766,-0.531 -19.477,-0.531 l -19.48,0 -1.118,3.937 c -0.613,2.164 -2.457,9.336 -4.093,15.938 l -2.981,12 -3.59,3.187 c -1.976,1.754 -3.777,3.188 -3.996,3.188 -0.222,0 -2.715,-2.723 -5.539,-6.047 -2.824,-3.324 -5.281,-5.899 -5.461,-5.719 -0.179,0.176 -1.004,5.906 -1.832,12.727 l -1.511,12.402 4.996,9.973 c 2.75,5.484 5.082,10.664 5.183,11.504 0.106,0.843 7.485,20.773 16.403,44.285 l 16.211,42.75 0.511,23.457 0.512,23.461 -2.18,2.328 c -4.867,5.191 -19.984,10.289 -43.058,14.515 -36.164,6.633 -72.032,6.125 -105.379,-1.48 -8.516,-1.945 -18.543,-5.582 -29.621,-10.742 -11.661,-5.438 -20.547,-14.645 -22.59,-23.414 -0.352,-1.512 0.633,-41.774 2.32,-94.875 1.617,-50.739 2.758,-93.125 2.539,-94.192 l -0.398,-1.941 -39.434,-0.496 c -42.933,-0.543 -65.012,-0.528 -67.238,0.043 l 0,-0.004 z m 26.207,9.426 c -0.996,13.277 2.875,31.543 8.219,38.785 0.961,1.305 2.855,2.969 4.211,3.691 4.589,2.461 3.629,3.059 -4.911,3.059 -14.175,0 -20.793,-3.215 -25.73,-12.508 -3.418,-6.434 -6.195,-21.746 -6.195,-34.156 l 0,-5.836 24.929,0 -0.523,6.965 z m 425.402,22.851 c -4.965,11.856 -9.812,22.59 -10.765,23.844 -2.168,2.852 -6.504,15.187 -8.52,24.234 -2.351,10.563 -3.582,20.661 -5.234,42.969 -2.766,37.348 -3.016,43.438 -3.508,85.617 -0.356,30.176 -0.723,41.762 -1.324,41.532 -0.457,-0.176 -4.715,-1.411 -9.457,-2.747 -4.743,-1.335 -8.961,-2.695 -9.375,-3.015 -0.414,-0.32 -2.91,-0.828 -5.547,-1.125 -10.469,-1.192 -20.199,-6.664 -21.535,-12.113 -0.289,-1.172 -0.778,-2.305 -1.086,-2.508 -0.309,-0.207 -1.407,-2.285 -2.438,-4.617 l -1.875,-4.243 22.344,-60.398 7.644,-39.809 c 4.204,-21.894 7.93,-40.004 8.278,-40.242 0.351,-0.238 -1.754,-5.453 -4.672,-11.59 l -5.305,-11.156 1.574,-7.535 c 2.364,-11.301 2.063,-11.027 6.317,-5.727 2.012,2.512 3.801,4.563 3.976,4.563 0.172,0 2.758,-1.703 5.747,-3.789 l 5.429,-3.793 4.367,-14.395 c 2.399,-7.918 4.504,-14.648 4.68,-14.961 0.172,-0.308 6.84,-0.562 14.816,-0.562 l 14.5,0 -9.031,21.566 z m 247.317,34.473 c -5.258,0.734 -17.203,5.117 -39.375,14.453 -12.993,5.469 -23.731,10.039 -23.86,10.152 -0.355,0.309 5.059,10.856 5.575,10.856 0.246,0 10.496,-4.379 22.777,-9.731 31.355,-13.672 33.008,-14.265 39.492,-14.265 9.676,0 13.082,2.457 18.605,13.426 2.196,4.363 2.883,6.718 3.208,11.023 0.535,7.086 -0.297,9 -6.309,14.508 -4.602,4.219 -5.969,4.902 -32.336,16.187 -15.141,6.481 -27.633,11.879 -27.762,11.992 -0.343,0.305 5.051,10.86 5.551,10.86 1.125,0 47.047,-20.012 51.168,-22.301 6.586,-3.656 12.797,-8.461 15.848,-12.258 5.699,-7.09 6.855,-17.539 3.152,-28.484 -4.332,-12.805 -8.863,-19.129 -17.457,-24.379 -3.937,-2.402 -4.625,-2.57 -10.125,-2.465 -3.246,0.063 -6.914,0.254 -8.152,0.426 z M 51.18,391.155 c -1.477,3.832 -3.707,9.66 -3.707,9.691 0,0.016 5.07,4.227 11.265,9.359 6.196,5.129 11.137,9.672 10.985,10.094 -0.153,0.422 -2.887,8.61 -6.071,18.192 l -5.793,17.421 -15.07,0.204 -15.074,0.199 -1.66,5.437 -1.657,5.438 4.223,0.023 c 2.324,0.016 23.715,-0.562 47.535,-1.281 l 43.305,-1.305 2.285,-5.98 c 2.188,-5.731 2.227,-6.035 0.942,-7.246 -1.215,-1.145 -66.333,-58.672 -69.383,-61.297 -1.172,-1.008 -1.371,-0.91 -2.125,1.051 z m 42.793,48.679 c 6.683,5.766 13.715,11.578 15.625,12.918 l 3.472,2.442 -44.558,0 0.8,-2.067 c 0.446,-1.132 2.426,-6.449 4.411,-11.812 5.683,-15.371 5.035,-14.11 6.672,-12.961 0.785,0.551 6.894,5.715 13.578,11.48 z m 1056.375,33.133 c -22.688,7.25 -41.332,13.246 -41.434,13.324 -0.305,0.239 2.965,9.735 3.594,10.426 0.426,0.469 83.25,-25.129 84.523,-26.121 0.617,-0.484 -3.515,-10.555 -4.379,-10.672 -0.578,-0.078 -19.617,5.793 -42.304,13.043 z m -1119,60.93 c -10.196,1.762 -18.868,11.996 -21.809,25.73 -2.082,9.715 0.066,23.817 4.598,30.188 4.84,6.808 14.984,11.711 26.961,13.035 10.199,1.121 55.031,4.187 55.429,3.785 0.196,-0.191 0.582,-2.883 0.864,-5.976 l 0.507,-5.629 -24.648,-1.723 c -40.465,-2.832 -46.613,-4.328 -50.406,-12.289 -4.485,-9.41 -3.602,-21.359 2.176,-29.406 1.988,-2.766 3.085,-3.489 7.355,-4.836 6.645,-2.098 15.059,-2.09 44.512,0.043 12.672,0.922 23.195,1.511 23.39,1.32 0.192,-0.195 0.582,-2.883 0.86,-5.977 l 0.511,-5.621 -23.527,-1.691 c -22.867,-1.648 -40.66,-2.008 -46.773,-0.953 z m 1092.375,15.437 c 0,1.121 4.531,61.418 4.918,65.418 l 0.453,4.692 5.187,0 c 2.856,0 5.192,-0.313 5.192,-0.692 0,-0.382 -0.512,-7.011 -1.141,-14.738 -0.625,-7.723 -1.047,-14.109 -0.937,-14.187 0.113,-0.079 17.878,-1.286 39.48,-2.68 l 39.273,-2.539 -0.507,-5.629 c -0.282,-3.098 -0.668,-5.785 -0.856,-5.973 -0.187,-0.191 -17.711,0.793 -38.937,2.184 -21.227,1.394 -38.77,2.355 -38.989,2.137 -0.277,-0.278 -2.636,-25.489 -2.636,-28.18 0,-0.113 -2.364,-0.207 -5.25,-0.207 -2.887,0 -5.25,0.18 -5.25,0.394 z m -315.7,26.793 c -0.921,7.942 -1.898,15.364 -2.175,16.489 l -0.5,2.05 -6.547,-4.3 c -3.602,-2.364 -6.555,-4.637 -6.563,-5.051 -0.015,-0.735 -20.101,-8.293 -20.621,-7.762 -0.144,0.145 1.571,6.34 3.809,13.762 2.238,7.426 5.211,17.297 6.609,21.937 1.395,4.637 2.242,8.254 1.887,8.032 -0.36,-0.219 -3.613,-2.942 -7.238,-6.047 l -6.586,-5.645 -0.75,23.961 -11.18,-8.961 -1.328,7.738 -1.328,7.735 3.363,3.375 3.363,3.371 -6.816,2.273 -6.813,2.274 7.18,9.926 c 3.953,5.461 7.184,10.078 7.184,10.257 0,0.18 -2.539,-1.175 -5.649,-3.011 -6.191,-3.664 -6.453,-3.766 -5.98,-2.403 0.179,0.516 0.687,5.66 1.133,11.426 0.515,6.734 1.132,10.672 1.722,11 0.504,0.281 3.274,2.395 6.156,4.695 2.883,2.301 5.559,4.082 5.946,3.954 1.851,-0.606 0.765,-2.122 -4.43,-6.192 -3.105,-2.433 -5.652,-4.765 -5.656,-5.183 0,-0.418 -0.348,-3.762 -0.77,-7.426 -0.418,-3.668 -0.625,-6.805 -0.461,-6.973 0.168,-0.168 4.454,2.41 9.524,5.727 5.074,3.316 9.359,5.89 9.527,5.722 0.168,-0.168 -4.269,-6.828 -9.867,-14.804 l -10.172,-14.496 3.922,-1.731 c 4.461,-1.969 4.52,-1.953 11.316,2.988 4.274,3.106 4.418,3.153 5.489,1.711 1.031,-1.386 0.578,-1.968 -7.309,-9.386 l -8.406,-7.911 0.668,-4.367 0.672,-4.371 9.375,7.434 c 5.156,4.09 9.824,7.711 10.371,8.047 0.547,0.336 -0.899,-2.235 -3.211,-5.711 l -4.211,-6.325 0.215,-8.753 0.211,-8.75 8.16,7.121 c 4.488,3.914 8.258,7.121 8.375,7.121 0.262,0 0.406,0.508 -7.434,-26.254 -3.445,-11.754 -6.023,-21.469 -5.734,-21.586 0.289,-0.113 3.262,0.801 6.609,2.031 3.864,1.426 9.563,4.57 15.637,8.625 5.258,3.512 9.672,6.274 9.809,6.137 0.136,-0.141 1.082,-7.438 2.097,-16.227 1.016,-8.785 1.977,-16.097 2.129,-16.254 0.156,-0.152 4.578,2.266 9.832,5.371 5.25,3.11 9.813,5.653 10.141,5.653 0.59,0 1.726,-2.278 1.336,-2.668 -0.301,-0.297 -23.95,-13.832 -24.172,-13.832 -0.102,0 -0.942,6.5 -1.86,14.437 z M 8.848,675.733 c -1.649,0.777 -3.293,1.523 -3.653,1.656 -0.894,0.328 3.571,9.094 6.969,13.68 1.527,2.058 3.012,4.136 3.293,4.613 0.285,0.477 -0.445,3.012 -1.621,5.633 -4.539,10.117 -4.566,23.324 -0.07,33.344 4.496,10.027 14.386,18.757 25.457,22.472 5.902,1.981 7.207,2.137 17.625,2.11 10.941,-0.024 11.414,-0.09 17.25,-2.465 13.757,-5.598 20.359,-11.594 24.457,-22.203 4.539,-11.762 4.394,-23.911 -0.414,-34.461 -5.258,-11.539 -11.715,-17.254 -24.305,-21.508 -5.816,-1.965 -7.316,-2.16 -16.566,-2.149 -14.625,0.02 -22.653,2.508 -32.809,10.184 -1.313,0.992 -2.664,1.793 -3,1.785 -0.918,-0.031 -5.188,-6.613 -6.914,-10.672 -0.836,-1.957 -1.785,-3.535 -2.109,-3.5 -0.325,0.035 -1.942,0.7 -3.59,1.481 z m 61.597,14.125 c 6.133,1.594 10.844,4.554 14.657,9.211 4.683,5.73 5.894,8.949 6.367,16.972 0.398,6.723 0.273,7.672 -1.641,12.524 -3.59,9.113 -11.816,15.98 -21.68,18.097 -5.91,1.27 -17.687,1.25 -22.925,-0.039 -7.321,-1.8 -11.215,-3.992 -16.528,-9.304 -4.246,-4.246 -5.32,-5.844 -6.425,-9.551 -1.555,-5.223 -1.7,-13.555 -0.321,-18.328 l 0.977,-3.375 2.48,5.144 c 1.364,2.832 2.66,5.325 2.883,5.547 0.309,0.309 6.82,-1.722 7.742,-2.418 0.653,-0.488 -3.355,-9.898 -5.488,-12.89 l -2.59,-3.633 2.445,-2.102 c 2.571,-2.207 7.149,-4.515 12.2,-6.152 4.797,-1.551 21.41,-1.375 27.847,0.297 z m 178.028,-11.422 c -9.723,0.949 -16.524,3.961 -24.262,10.758 -5.356,4.699 -11.941,22.5 -8.328,22.5 1.047,0 0.996,0.347 -0.36,2.539 -1.425,2.308 -1.453,2.586 -0.32,3.019 0.742,0.285 1.895,-0.101 2.824,-0.953 2.399,-2.187 6.137,-3.863 8.469,-3.797 1.816,0.051 1.641,0.219 -1.273,1.235 -4.504,1.574 -10.496,5.453 -14.301,9.254 -3.277,3.281 -5.453,7.492 -6.274,12.14 -0.433,2.461 -0.312,2.809 0.981,2.809 1.055,0 1.625,-0.692 2,-2.434 1.648,-7.64 8.855,-15.027 17.867,-18.328 9.613,-3.516 13.859,-3.801 29.867,-2.016 11.227,1.25 13.36,1.137 13.36,-0.726 0,-0.77 -1.621,-1.191 -6.098,-1.582 -3.355,-0.293 -9.441,-1.18 -13.527,-1.973 -9.461,-1.832 -23.914,-1.972 -27.989,-0.269 -1.539,0.64 -2.964,1.004 -3.164,0.8 -0.797,-0.796 1.442,-8.441 3.727,-12.73 5.453,-10.23 15.91,-16.949 26.418,-16.98 2.91,-0.008 3.488,0.484 20.015,16.996 15.043,15.031 17.161,16.89 18.243,15.992 1.086,-0.903 -0.758,-2.992 -16.633,-18.879 -9.82,-9.828 -18.027,-17.816 -18.235,-17.75 -0.21,0.066 -1.562,0.234 -3.007,0.375 z m 931.5,6.918 c 0,5.613 0.117,6.09 1.519,6.09 0.836,0 3.449,0.664 5.813,1.48 8.66,2.988 13.843,11.641 13.941,23.27 0.117,13.601 -5.215,20.996 -15.137,20.996 -6.339,0 -10.82,-4.508 -13.269,-13.352 -8.235,-29.75 -9.738,-33.008 -17.719,-38.359 l -4.773,-3.203 -5.625,0.406 c -6.895,0.5 -11.516,2.211 -15.11,5.59 -7.062,6.64 -10.824,20.195 -9.019,32.469 1.051,7.125 5.562,16.562 9.418,19.695 5.554,4.512 9.679,6.504 13.465,6.504 l 3.496,0 0,-11.867 -3.157,-0.532 c -6.347,-1.074 -10.925,-6.906 -12.582,-16.027 -2.312,-12.758 2.946,-22.883 12.387,-23.859 3.988,-0.41 4.301,-0.313 6.828,2.117 3.832,3.68 4.571,5.476 8.117,19.715 4.907,19.675 8.778,26.293 18.204,31.101 4.351,2.219 13.566,2.246 18.703,0.059 6.422,-2.738 12.558,-10.102 15.023,-18.031 1.824,-5.864 1.781,-21.34 -0.074,-26.922 -2.32,-6.992 -6.024,-12.895 -9.953,-15.871 -4.797,-3.633 -11.203,-6.395 -16.332,-7.036 l -4.164,-0.519 0,6.086 z m -642,25.656 c -7.633,2.445 -14.141,4.531 -14.465,4.637 -0.32,0.101 -0.121,0.828 0.453,1.609 1.008,1.379 1.351,1.324 11.039,-1.683 5.5,-1.707 10.133,-2.973 10.289,-2.813 0.16,0.16 -5.129,8.856 -11.758,19.328 l -12.051,19.035 -39.378,5.219 c -35.071,4.645 -39.379,5.36 -39.379,6.531 0,0.832 0.57,1.317 1.547,1.317 0.851,0 18.222,-2.192 38.605,-4.875 20.383,-2.68 37.867,-4.871 38.852,-4.871 1.535,0 3.925,-3.414 16.832,-24.004 8.277,-13.199 14.652,-23.973 14.168,-23.938 -0.485,0.032 -7.122,2.059 -14.754,4.508 z m -334.559,28.777 c -3.891,2.149 -8.047,10.551 -9.644,19.485 -0.579,3.223 -0.571,4.598 0.031,4.969 0.582,0.359 0.597,0.941 0.051,1.957 -0.668,1.254 1.906,4.476 19.429,24.281 l 20.207,22.836 14.785,23.629 c 9.598,15.336 20.911,34.937 32.243,55.871 9.601,17.738 17.539,32.437 17.644,32.664 0.227,0.504 30.235,5.965 32.758,5.965 1.281,0 -1.953,-2.703 -11.449,-9.563 l -13.239,-9.566 -6.503,-11.25 c -3.582,-6.184 -6.618,-11.387 -6.75,-11.555 -0.133,-0.168 -0.907,0.004 -1.723,0.375 -1.379,0.633 -0.996,1.512 5.469,12.465 5.332,9.035 7.64,12.25 9.914,13.789 1.629,1.106 5.324,3.871 8.211,6.145 4.523,3.562 4.937,4.078 3,3.718 -1.239,-0.226 -5.696,-1.007 -9.903,-1.738 l -7.656,-1.32 -16.637,-30.438 C 274.5,875.764 260.141,850.592 251.734,836.565 l -15.281,-25.5 -19.863,-22.07 c -10.926,-12.137 -19.867,-22.5 -19.867,-23.028 0,-1.457 5.871,-5.066 10.566,-6.5 2.305,-0.699 6.063,-1.273 8.348,-1.273 3.804,0 4.191,-0.157 4.508,-1.817 0.265,-1.398 -1.016,-3.593 -5.583,-9.562 -6.257,-8.176 -7.574,-9.008 -11.148,-7.028 z m 8.609,9.028 4.223,6 -2.074,0.207 c -3.586,0.359 -11.707,2.609 -14.637,4.058 -1.547,0.766 -2.812,1.153 -2.812,0.864 0,-2.446 2.781,-10.942 4.336,-13.235 1.964,-2.906 5.398,-5.32 6.265,-4.398 0.262,0.277 2.375,3.207 4.699,6.504 z m 286.387,17.519 c -20.523,3.043 -23.437,3.641 -23.437,4.793 0,1.731 -0.227,1.746 21.316,-1.355 10.199,-1.469 18.84,-2.567 19.203,-2.438 0.559,0.196 -35.195,32.43 -42.203,38.055 l -2.273,1.824 -24.707,-1.394 c -21.352,-1.203 -24.801,-1.246 -25.387,-0.324 -0.371,0.589 -0.68,1.257 -0.688,1.488 -0.004,0.23 11.825,1.074 26.286,1.875 l 26.3,1.461 23.414,-21.004 c 12.879,-11.547 24.899,-22.262 26.711,-23.813 l 3.297,-2.808 -2.195,0.082 c -1.211,0.047 -12.746,1.648 -25.637,3.558 z m -250.23,27.578 c 1.168,2.012 4.004,6.86 6.304,10.774 l 4.18,7.117 9.715,1.211 c 5.348,0.668 10.898,1.461 12.344,1.77 2.234,0.472 1.57,-0.2 -4.5,-4.524 -6.926,-4.937 -28.223,-19.164 -29.524,-19.723 -0.355,-0.152 0.309,1.368 1.481,3.375 z m 21.679,15.887 c -0.125,0.129 -2.203,0.008 -4.621,-0.265 -4.324,-0.497 -4.426,-0.563 -6.828,-4.473 -1.34,-2.184 -2.437,-4.172 -2.437,-4.422 0,-0.25 3.175,1.656 7.058,4.238 3.879,2.578 6.953,4.793 6.828,4.922 z m 699.344,-5.066 c -3.496,2.91 -6.25,5.672 -6.121,6.137 0.129,0.464 1.207,2.078 2.398,3.582 1.711,2.156 3.008,2.921 6.168,3.628 4.754,1.067 7.68,0.313 12.036,-3.085 2.261,-1.766 2.66,-2.43 1.972,-3.258 -0.652,-0.785 -0.652,-1.301 -0.011,-2.078 0.687,-0.825 -0.188,-1.961 -4.321,-5.625 -2.847,-2.528 -5.308,-4.59 -5.469,-4.59 -0.164,0 -3.156,2.379 -6.652,5.289 z m 10.52,2.226 4.125,3.723 -2.625,2.234 c -2.223,1.891 -3.258,2.235 -6.75,2.231 -3.352,0 -4.535,-0.363 -6.305,-1.918 l -2.184,-1.918 4.434,-4.027 c 2.437,-2.211 4.598,-4.028 4.805,-4.036 0.207,-0.003 2.23,1.664 4.5,3.711 z m -501.938,10.746 c -11.445,4.188 -20.805,7.782 -20.801,7.989 0.008,0.203 0.305,0.84 0.668,1.406 0.528,0.836 3.223,0.094 14.051,-3.879 7.367,-2.703 14.07,-5.156 14.895,-5.445 0.824,-0.293 -5.684,6.699 -14.465,15.535 l -15.961,16.07 -21.352,3.696 c -18.578,3.218 -21.347,3.871 -21.347,5.031 0,0.734 0.422,1.344 0.937,1.355 0.516,0.012 10.473,-1.593 22.129,-3.562 l 21.188,-3.578 21.179,-21.192 c 11.653,-11.652 20.848,-21.156 20.438,-21.113 -0.41,0.039 -10.114,3.5 -21.559,7.687 z m -107.566,0.215 c -0.578,0.235 0.597,3.485 3.445,9.524 6.164,13.058 7.688,18.082 7.824,25.758 0.106,6.136 0.02,6.484 -1.894,7.933 l -2.004,1.512 -5.121,-2.027 c -2.817,-1.118 -6.446,-2.895 -8.063,-3.95 -2.789,-1.82 -2.988,-1.851 -3.926,-0.57 -0.871,1.191 -0.66,1.562 1.809,3.242 3.633,2.469 12.719,6.039 15.445,6.074 1.469,0.016 2.969,-0.804 4.797,-2.632 l 2.657,-2.661 -0.411,-6.921 c -0.531,-8.875 -1.902,-13.602 -7.488,-25.821 -4.309,-9.429 -4.973,-10.316 -7.07,-9.461 z M 86.262,845.006 c -0.164,0.309 -2.953,11.035 -6.2,23.84 L 74.16,892.127 36.891,914.17 c -24.989,14.782 -37.141,22.371 -36.887,23.032 0.207,0.546 0.656,0.992 1,0.992 0.34,0 16.547,-9.356 36.019,-20.785 29.739,-17.457 35.836,-20.766 38.114,-20.688 1.492,0.051 13.914,2.988 27.605,6.531 13.692,3.543 25.383,6.442 25.981,6.442 0.922,0 2.449,-2.18 1.832,-2.61 -0.114,-0.078 -11.961,-3.125 -26.332,-6.773 -21.801,-5.539 -26.235,-6.457 -26.801,-5.563 -0.391,0.614 -0.68,0.704 -0.688,0.211 -0.004,-0.472 16.778,-10.718 37.301,-22.765 20.524,-12.043 37.406,-21.989 37.52,-22.094 0.402,-0.383 -0.754,-2.656 -1.352,-2.656 -0.34,0 -16.566,9.441 -36.062,20.984 -19.496,11.539 -35.575,20.859 -35.723,20.707 -0.215,-0.211 8.898,-36.898 10.777,-43.379 0.27,-0.941 -0.047,-1.312 -1.129,-1.312 -0.828,0 -1.64,0.25 -1.804,0.562 z m 991.093,1.899 c -0.621,0.75 4.325,4.004 22.223,14.621 12.66,7.511 23.457,13.945 23.996,14.293 0.535,0.347 3.942,12.246 7.567,26.441 6.093,23.867 6.714,25.824 8.281,26.055 1.336,0.199 1.605,-0.039 1.289,-1.125 -0.219,-0.754 -1.414,-5.422 -2.656,-10.375 -1.243,-4.949 -3.946,-15.524 -6,-23.5 -2.254,-8.723 -3.387,-14.356 -2.848,-14.145 0.488,0.196 22.602,13.219 49.133,28.938 26.535,15.722 48.519,28.586 48.859,28.586 1.106,0 1.598,-2.492 0.613,-3.11 -0.531,-0.332 -22.652,-13.339 -49.156,-28.902 -28.058,-16.48 -47.797,-28.512 -47.25,-28.801 0.52,-0.273 11.321,-3.156 24.004,-6.406 21.852,-5.598 25.418,-6.926 22.047,-8.219 -0.555,-0.215 -12.328,2.531 -26.156,6.102 l -25.145,6.492 -23.761,-13.953 c -13.071,-7.676 -23.872,-13.953 -24,-13.953 -0.133,0 -0.598,0.433 -1.04,0.961 z m -182.882,5.73 c -1.02,2.703 -7.211,6.055 -11.18,6.055 -2.184,0 -2.641,0.242 -2.277,1.187 0.254,0.653 0.457,1.328 0.457,1.5 0,0.172 1.285,0.317 2.851,0.317 5.426,0 13.649,-5.438 13.649,-9.024 0,-1.031 -1.356,-2.226 -2.524,-2.226 -0.082,0 -0.519,0.984 -0.976,2.191 z m -440.125,6.836 c -8.25,3.688 -15.582,6.961 -16.293,7.274 -0.914,0.406 -1.094,0.894 -0.606,1.675 0.586,0.934 1.633,0.715 6.918,-1.437 3.426,-1.399 7.41,-3.016 8.856,-3.598 2.144,-0.863 0.808,0.766 -7.285,8.906 l -9.907,9.961 -26.843,-1.675 c -32.368,-2.016 -30.965,-2.004 -30.965,-0.286 0,1.246 2.293,1.5 29.437,3.254 l 29.438,1.907 16.496,-16.379 c 9.074,-9.012 16.332,-16.364 16.125,-16.344 -0.203,0.019 -7.121,3.055 -15.371,6.742 z m -45.375,35.973 c -6.805,2.859 -13.141,5.207 -14.078,5.222 -0.938,0.016 -7.426,-0.988 -14.422,-2.222 -14.922,-2.641 -15,-2.649 -15,-0.922 0,1.148 2.207,1.715 15.894,4.09 l 15.899,2.761 13.004,-5.75 c 9.062,-4.007 12.937,-6.078 12.789,-6.839 -0.118,-0.602 -0.547,-1.192 -0.961,-1.317 -0.414,-0.121 -6.321,2.117 -13.125,4.977 z m -104.121,5.465 c -0.622,0.75 3.191,3.843 16.863,13.687 9.715,6.996 18.422,13.191 19.351,13.766 1.547,0.957 3.289,0.414 20.735,-6.465 10.476,-4.129 20.226,-7.774 21.672,-8.098 2.246,-0.508 0.125,-1.117 -14.625,-4.199 -9.489,-1.984 -17.84,-3.617 -18.563,-3.633 -0.762,-0.012 -1.312,0.528 -1.312,1.297 0,1.106 2.066,1.746 12.769,3.941 l 12.766,2.622 -15.238,5.808 c -8.383,3.192 -15.594,5.809 -16.024,5.809 -0.43,0 -8.82,-5.739 -18.648,-12.754 -9.828,-7.012 -18.11,-12.746 -18.403,-12.746 -0.297,0 -0.898,0.433 -1.343,0.965 z m 777.621,47.3 c 0,0.149 2.355,11.348 5.234,24.891 2.879,13.543 5.125,24.734 4.988,24.867 -0.133,0.137 -16.547,-10.894 -36.472,-24.512 -28.637,-19.562 -36.446,-24.578 -37.258,-23.902 -0.567,0.469 -0.91,0.969 -0.766,1.113 0.145,0.145 16.457,11.329 36.25,24.856 l 35.992,24.59 -24.984,5.578 c -13.742,3.066 -24.98,5.758 -24.973,5.976 0.01,0.219 0.309,0.871 0.672,1.446 0.547,0.863 5.153,0.039 26.567,-4.762 14.445,-3.238 26.339,-5.551 26.89,-5.23 0.539,0.32 15.782,10.691 33.864,23.046 18.082,12.356 33.437,22.508 34.125,22.559 0.683,0.051 1.246,-0.305 1.246,-0.793 0,-0.484 -14.68,-10.902 -32.625,-23.152 -17.946,-12.25 -33.039,-22.66 -33.547,-23.129 -0.508,-0.473 -3.285,-11.992 -6.168,-25.598 -2.887,-13.605 -5.43,-25.496 -5.656,-26.426 -0.25,-1.043 -0.973,-1.683 -1.895,-1.683 -0.816,0 -1.484,0.117 -1.484,0.265 z m -894.532,15.832 -20.273,13.848 -24.914,-5.348 c -20.832,-4.472 -25.024,-5.175 -25.586,-4.285 -0.371,0.582 -0.676,1.239 -0.684,1.457 -0.004,0.219 10.368,2.555 23.051,5.188 12.684,2.633 23.313,4.996 23.617,5.258 0.305,0.257 -21.632,15.609 -48.75,34.113 -27.117,18.504 -49.558,33.867 -49.871,34.137 -0.308,0.269 -0.133,1.078 0.395,1.796 0.863,1.188 5.847,-2.035 53.051,-34.3 28.656,-19.586 52.211,-35.5 52.347,-35.364 0.196,0.2 -8.515,42.414 -10.105,48.965 -0.324,1.332 -0.086,1.688 1.121,1.688 0.844,0 1.707,-0.594 1.922,-1.313 0.215,-0.722 2.8,-12.789 5.75,-26.812 2.949,-14.028 5.578,-25.715 5.847,-25.973 0.27,-0.258 8.082,-5.629 17.364,-11.934 9.281,-6.304 17.14,-11.687 17.461,-11.964 0.664,-0.571 -0.079,-3.004 -0.918,-3.004 -0.301,0 -9.672,6.23 -20.825,13.847 z m 62.407,96.52 c -14.438,18.625 -26.645,34.418 -27.125,35.098 -0.743,1.046 -0.239,1.734 3.332,4.492 2.312,1.789 4.605,3.293 5.093,3.336 0.489,0.043 5.696,-6.164 11.575,-13.793 5.879,-7.633 11.082,-13.84 11.566,-13.797 0.66,0.058 32.84,24.48 35.848,27.207 0.293,0.269 -4.5,7.051 -10.653,15.074 -6.152,8.024 -11.121,14.652 -11.039,14.731 1.785,1.699 9.223,7.003 9.614,6.859 0.414,-0.156 41.671,-53.004 52.586,-67.359 l 2.019,-2.657 -4.16,-3.25 c -2.289,-1.785 -4.59,-3.289 -5.117,-3.343 -0.528,-0.051 -6.442,6.996 -13.149,15.656 -6.703,8.664 -12.582,15.719 -13.062,15.676 -0.653,-0.059 -32.715,-24.387 -35.867,-27.215 -0.293,-0.266 4.546,-7.059 10.761,-15.098 6.215,-8.035 11.918,-15.476 12.676,-16.535 l 1.379,-1.922 -4.023,-3.144 c -2.215,-1.727 -4.469,-3.309 -5.016,-3.508 -0.621,-0.235 -10.719,12.183 -27.238,33.492 z m 678.816,-18.043 c -5.973,2.41 -15.062,8.793 -27.066,19.004 -6.188,5.265 -11.496,9.801 -11.797,10.078 -0.489,0.457 54.332,68.449 55.566,68.91 0.844,0.317 25.574,-19.949 30.945,-25.355 14.415,-14.524 14.7,-33.84 0.77,-52.09 -6.441,-8.438 -14.305,-15.543 -20.77,-18.77 -5.874,-2.933 -6.101,-2.98 -14.964,-3.121 -7.453,-0.117 -9.633,0.117 -12.684,1.344 z m 22.051,11.977 c 9.09,4.843 19.648,17.582 23.254,28.054 3.226,9.387 1.172,18.836 -5.551,25.524 -4.758,4.734 -19.969,16.996 -20.727,16.707 -1.25,-0.477 -42.664,-52.688 -42.148,-53.145 5.875,-5.199 21.137,-16.457 24.543,-18.105 4.019,-1.942 5.129,-2.149 10.156,-1.895 4.66,0.238 6.488,0.738 10.473,2.86 z m -542.11,61.261 c -0.769,1.547 -4.332,9.227 -7.914,17.067 l -6.511,14.257 -25.864,16.493 -25.859,16.492 6.09,2.816 c 3.348,1.547 6.398,2.813 6.773,2.813 0.379,0 5.828,-3.446 12.11,-7.657 14.75,-9.882 28.562,-18.574 28.933,-18.207 0.5,0.5 1.582,6.829 4.664,27.321 1.645,10.906 3.063,19.894 3.153,19.969 0.609,0.496 12.781,5.582 12.949,5.41 0.117,-0.118 -2.461,-13.883 -5.727,-30.586 l -5.937,-30.375 7.207,-16.504 c 3.961,-9.074 7.351,-16.856 7.527,-17.293 0.254,-0.621 -8.332,-4.832 -9.851,-4.832 -0.188,0 -0.973,1.269 -1.743,2.816 z m 394.922,2.297 c -2.789,1.106 -4.937,2.348 -4.773,2.762 0.168,0.414 7.285,18.64 15.82,40.504 8.535,21.859 15.801,40.039 16.145,40.394 0.461,0.481 9.89,-1.957 11.054,-2.859 0.438,-0.344 -31.812,-82.453 -32.453,-82.621 -0.398,-0.106 -3.004,0.715 -5.793,1.82 z m -79.429,22.113 -5.004,0.746 -4.332,10.579 c -7.793,19.027 -11.008,25.257 -15.383,29.824 -3.988,4.16 -4.106,4.219 -10.781,5.414 -3.711,0.66 -8.336,1.418 -10.274,1.68 -4.168,0.562 -3.32,2.855 -6.972,-18.84 -1.457,-8.664 -2.829,-16.551 -3.051,-17.524 -0.391,-1.734 -0.524,-1.761 -6.176,-1.238 -3.176,0.293 -5.863,0.613 -5.965,0.711 -0.176,0.164 3.328,20.519 6.531,37.926 0.797,4.328 2.993,16.648 4.883,27.375 4.266,24.226 3.949,22.875 5.352,22.875 0.644,0 9.859,-1.516 20.476,-3.364 36.786,-6.41 43.118,-10.281 44.118,-26.996 0.621,-10.324 -3.293,-17.121 -12.993,-22.574 -4.043,-2.269 -5.207,-2.566 -10.027,-2.566 l -5.453,0 2.535,-2.813 c 5.332,-5.914 7.875,-10.461 14.578,-26.074 7.895,-18.379 8.129,-16.664 -2.062,-15.141 z m -5.114,55.907 c 3.461,1.832 6.7,7.625 6.723,12.031 0.031,5.918 -3.781,10.031 -12.203,13.16 -4.555,1.691 -30.942,6.266 -31.711,5.496 -0.445,-0.445 -4.992,-26.93 -4.66,-27.164 0.117,-0.082 5.785,-1.18 12.59,-2.437 15.082,-2.789 25.324,-3.168 29.261,-1.086 z m -210.355,-46.196 c -0.414,2.457 -3.188,22.739 -8.68,63.504 -1.637,12.137 -2.89,22.117 -2.789,22.18 1.113,0.691 38.578,4.906 43.531,4.894 7.27,-0.015 10.309,-1.089 15.911,-5.628 4.738,-3.84 6.75,-8.551 6.73,-15.758 -0.012,-5.059 -0.336,-6.614 -2.051,-9.895 -1.121,-2.137 -3.261,-4.824 -4.761,-5.969 l -2.727,-2.078 3.277,-1.062 c 5.465,-1.77 10.731,-6.238 13.145,-11.156 1.805,-3.676 2.133,-5.266 2.133,-10.36 0,-5.25 -0.305,-6.633 -2.395,-10.875 -3.23,-6.551 -6.875,-9.89 -13.73,-12.586 -6.102,-2.402 -9.043,-2.968 -30,-5.781 -17.856,-2.395 -17.09,-2.418 -17.594,0.57 z m 27.594,11.418 c 13.832,1.996 17.765,3.383 21.418,7.539 5.511,6.282 2.804,18.989 -4.86,22.825 -3.613,1.804 -11.398,1.804 -24.437,0 -6.735,-0.934 -12.328,-1.758 -12.43,-1.828 -0.191,-0.133 2.441,-22.457 3.246,-27.571 0.543,-3.449 0.035,-3.422 17.063,-0.961 z m -8.875,40.532 c 15.144,1.886 20.996,4.214 23.648,9.41 1.813,3.558 1.824,7.515 0.031,11.941 -2.035,5.02 -3.847,6.016 -11.89,6.539 -5.262,0.34 -9.387,0.039 -17.582,-1.277 -5.891,-0.945 -10.778,-1.77 -10.867,-1.832 -0.165,-0.113 2.41,-19.184 3.171,-23.477 0.516,-2.914 0.547,-2.918 13.489,-1.304 z"
         style="fill:#325479;fill-opacity:1;fill-rule:nonzero;stroke:none"
         id="path14"
         inkscape:connector-curvature="0" /></g></g></svg>